<svg width="190" height="190" viewBox="0 0 190 190" fill="none" xmlns="http://www.w3.org/2000/svg">
<path d="M183.209 0.333984L111.105 28.0547L111.959 17.1816C112.33 12.4316 107.209 9.20313 103.053 11.5781L37.5918 49.5039C14.3242 62.9746 0 87.8008 0 114.668C0 156.268 33.7324 190 75.332 190C102.199 190 127.063 175.676 140.533 152.408L178.422 86.9473C180.834 82.8281 177.605 77.6699 172.818 78.041L161.945 78.8945L189.666 6.79102C189.889 6.23437 190 5.60352 190 5.00977C190 2.22656 187.773 0 184.99 0C184.359 0 183.766 0.111328 183.209 0.333984ZM71.25 71.25C83.8478 71.25 95.9296 76.2544 104.838 85.1624C113.746 94.0704 118.75 106.152 118.75 118.75C118.75 131.348 113.746 143.43 104.838 152.338C95.9296 161.246 83.8478 166.25 71.25 166.25C58.6522 166.25 46.5704 161.246 37.6624 152.338C28.7545 143.43 23.75 131.348 23.75 118.75C23.75 106.152 28.7545 94.0704 37.6624 85.1624C46.5704 76.2544 58.6522 71.25 71.25 71.25ZM71.25 106.875C71.25 103.726 69.9989 100.705 67.7719 98.4781C65.5449 96.2511 62.5244 95 59.375 95C56.2256 95 53.2051 96.2511 50.9781 98.4781C48.7511 100.705 47.5 103.726 47.5 106.875C47.5 110.024 48.7511 113.045 50.9781 115.272C53.2051 117.499 56.2256 118.75 59.375 118.75C62.5244 118.75 65.5449 117.499 67.7719 115.272C69.9989 113.045 71.25 110.024 71.25 106.875ZM77.1875 142.5C78.7622 142.5 80.2724 141.874 81.3859 140.761C82.4994 139.647 83.125 138.137 83.125 136.562C83.125 134.988 82.4994 133.478 81.3859 132.364C80.2724 131.251 78.7622 130.625 77.1875 130.625C75.6128 130.625 74.1026 131.251 72.9891 132.364C71.8756 133.478 71.25 134.988 71.25 136.562C71.25 138.137 71.8756 139.647 72.9891 140.761C74.1026 141.874 75.6128 142.5 77.1875 142.5Z" fill="#FFD76C"/>
</svg>
