<svg width="200" height="200" viewBox="0 0 200 200" fill="none" xmlns="http://www.w3.org/2000/svg">
<path d="M114.199 75.2274C114.89 73.622 114.375 71.7471 112.957 70.7159C111.539 69.6847 109.605 69.7784 108.281 70.9268L78.2822 97.1759C77.1103 98.2071 76.6885 99.8594 77.2392 101.312C77.79 102.766 79.1962 103.75 80.7547 103.75H93.8207L84.8093 124.773C84.1179 126.378 84.6335 128.253 86.0514 129.284C87.4693 130.315 89.4029 130.222 90.727 129.073L120.726 102.824C121.898 101.793 122.32 100.141 121.769 98.6875C121.218 97.2345 119.824 96.2619 118.253 96.2619H105.187L114.199 75.2274Z" fill="#E5B66E"/>
</svg>
