<svg fill="#FFCE67" height="200px" width="200px" version="1.1" id="Layer_1" xmlns="http://www.w3.org/2000/svg" xmlns:xlink="http://www.w3.org/1999/xlink" viewBox="0 0 512.001 512.001" xml:space="preserve"><g id="SVGRepo_bgCarrier" stroke-width="0"></g><g id="SVGRepo_tracerCarrier" stroke-linecap="round" stroke-linejoin="round"></g><g id="SVGRepo_iconCarrier"> <g transform="translate(0 -1)"> <g> <g> <path d="M42.668,231.399c-4.71,0-8.533,3.814-8.533,8.533v25.6c0,4.719,3.823,8.533,8.533,8.533c4.71,0,8.533-3.814,8.533-8.533 v-25.6C51.201,235.213,47.378,231.399,42.668,231.399z"></path> <path d="M111.317,408.873l-27.571-12.979c0.93-3.499,1.587-7.108,1.587-10.897c0-8.226-2.449-15.855-6.502-22.383l15.471-10.317 c3.917-2.62,4.975-7.91,2.364-11.836c-2.611-3.917-7.91-4.975-11.836-2.364L66.97,350.01c-4.676-3.26-9.993-5.641-15.77-6.818 v-43.529c0-4.719-3.823-8.533-8.533-8.533c-4.71,0-8.533,3.814-8.533,8.533v43.529C14.686,347.16,0,364.398,0,384.997 c0,23.526,19.14,42.667,42.667,42.667c13.619,0,25.626-6.528,33.442-16.486l27.938,13.15c1.178,0.546,2.415,0.802,3.635,0.802 c3.2,0,6.272-1.809,7.723-4.898C117.41,415.964,115.584,410.879,111.317,408.873z"></path> <path d="M173.088,437.94l-23.159-10.897c-4.258-1.997-9.353-0.179-11.358,4.087s-0.171,9.353,4.087,11.358l23.159,10.906 c1.178,0.546,2.415,0.802,3.635,0.802c3.2,0,6.272-1.809,7.723-4.898C179.181,445.032,177.355,439.946,173.088,437.94z"></path> <path d="M469.334,265.532c-4.719,0-8.533,3.814-8.533,8.533v25.6c0,4.719,3.814,8.533,8.533,8.533s8.533-3.814,8.533-8.533v-25.6 C477.868,269.346,474.053,265.532,469.334,265.532z"></path> <path d="M477.868,214.332c0-4.719-3.814-8.533-8.533-8.533s-8.533,3.814-8.533,8.533v25.6c0,4.719,3.814,8.533,8.533,8.533 s8.533-3.814,8.533-8.533V214.332z"></path> <path d="M34.134,162.269v26.462c0,4.719,3.823,8.533,8.533,8.533c4.71,0,8.533-3.814,8.533-8.533v-26.462 c9.941-2.031,18.5-7.646,24.627-15.292l18.159,11.358c1.408,0.879,2.97,1.297,4.514,1.297c2.842,0,5.623-1.425,7.245-4.011 c2.5-4.002,1.28-9.267-2.714-11.759l-19.405-12.126c0.998-3.61,1.707-7.347,1.707-11.273c0-6.511-1.587-12.621-4.207-18.15 l30.49-12.561c4.352-1.792,6.426-6.775,4.642-11.136c-1.801-4.361-6.793-6.417-11.145-4.642L73.55,86.971 c-1.016,0.427-1.886,1.05-2.628,1.766c-7.543-6.724-17.374-10.94-28.254-10.94c-23.526,0-42.667,19.14-42.667,42.667 C0.001,141.073,14.687,158.301,34.134,162.269z"></path> <path d="M477.868,343.195v-17.929c0-4.719-3.814-8.533-8.533-8.533s-8.533,3.814-8.533,8.533v17.929 c-9.549,1.946-17.809,7.211-23.885,14.387l-7.748-7.748c-3.336-3.336-8.73-3.336-12.066,0c-3.337,3.328-3.337,8.73,0,12.066 l11.401,11.401c-1.075,3.746-1.835,7.612-1.835,11.699c0,3.789,0.657,7.398,1.587,10.897l-27.571,12.979 c-4.258,2.005-6.093,7.091-4.087,11.358c1.451,3.089,4.523,4.898,7.731,4.898c1.212,0,2.449-0.256,3.627-0.811l27.938-13.15 c7.817,9.967,19.823,16.495,33.442,16.495c23.526,0,42.667-19.14,42.667-42.667C512.001,364.392,497.315,347.163,477.868,343.195 z"></path> <path d="M405.032,346.3c2.185,0,4.369-0.836,6.033-2.5c3.337-3.337,3.337-8.738,0-12.066l-6.332-6.34 c8.439-11.281,13.397-25.583,13.397-41.574c0-31.386-19.021-58.394-46.097-66.79c-0.879-10.726-3.601-20.915-7.688-30.37 l22.784-12.663c4.122-2.287,5.606-7.484,3.311-11.597c-2.287-4.122-7.467-5.623-11.605-3.319l-22.63,12.578 c-17.007-25.651-45.764-42.658-78.191-42.658c-29.508,0-58.104,14.114-76.322,37.274c-7.501-2.705-15.693-3.14-22.494-3.14 c-11.52,0-21.862,3.507-30.165,9.489l-17.058-10.667c-3.985-2.517-9.25-1.289-11.759,2.714c-2.492,3.994-1.28,9.267,2.722,11.759 l14.037,8.772c-5.128,7.842-8.073,17.331-8.073,27.784v0.256c-21.743,12.646-35.038,36.386-35.038,63.258 c0,17.997,6.025,34.509,16.026,47.386c-0.691,2.347-0.478,4.924,0.981,7.117c1.638,2.466,4.344,3.797,7.108,3.797 c0.691,0,1.382-0.128,2.065-0.299c11.93,10.214,27.051,16.367,43.503,16.367h189.312c15.292,0,28.996-4.932,39.885-13.32 l6.255,6.255C400.672,345.464,402.848,346.3,405.032,346.3z M388.87,317.662c-0.845,0.401-1.673,0.87-2.372,1.57 c-0.768,0.768-1.314,1.664-1.724,2.603c-8.388,7.501-19.439,11.964-31.915,11.964H163.547c-29.013,0-52.617-25.711-52.617-57.301 c0-22.178,11.571-41.506,30.191-50.432l4.847-2.313v-5.376c0-0.666,0.043-1.331,0.111-2.475l-0.111-2.918 c0-19.004,13.978-32.785,33.229-32.785c19.149,0,34.133,14.993,34.133,34.133c0,4.719,3.823,8.533,8.533,8.533 c4.719,0,8.533-3.814,8.533-8.533c0-14.686-5.905-27.725-15.505-36.975c14.899-19.106,39.014-31.292,63.121-31.292 c39.014,0,71.629,30.08,76.578,68.702c-7.049-0.887-15.77-1.468-23.074-0.333c-4.659,0.708-7.859,5.052-7.151,9.711 c0.717,4.668,5.137,7.868,9.719,7.151c9.566-1.451,24.704,1.186,29.739,2.338c0.631,0.137,1.271,0.205,1.894,0.205 c0.495,0,0.956-0.162,1.442-0.247c19.874,6.298,33.903,26.479,33.903,50.227C401.064,297.131,396.499,308.881,388.87,317.662z"></path> <path d="M362.076,427.04l-23.159,10.897c-4.267,2.014-6.101,7.091-4.087,11.358c1.451,3.098,4.523,4.907,7.723,4.907 c1.212,0,2.458-0.265,3.627-0.811l23.168-10.897c4.258-2.014,6.093-7.1,4.087-11.366 C371.42,426.861,366.343,425.052,362.076,427.04z"></path> <path d="M308.03,452.474l-11.443,5.385c-5.376-17.417-21.427-30.191-40.585-30.191s-35.217,12.774-40.593,30.191l-11.435-5.385 c-4.258-1.98-9.344-0.179-11.358,4.087c-2.005,4.267-0.179,9.353,4.087,11.366l17.203,8.098 C216.724,496.838,234.422,513,256.003,513c21.572,0,39.279-16.162,42.086-36.975l17.212-8.098 c4.267-2.014,6.093-7.1,4.087-11.366C317.374,452.294,312.288,450.494,308.03,452.474z"></path> <path d="M400.393,89.756l30.481,12.553c-2.62,5.53-4.207,11.639-4.207,18.159c0,3.874,0.691,7.552,1.655,11.127l-19.635,10.914 c-4.13,2.287-5.615,7.484-3.319,11.597c1.562,2.807,4.463,4.395,7.467,4.395c1.399,0,2.825-0.341,4.13-1.075l19.081-10.607 c6.135,7.731,14.746,13.406,24.755,15.454v26.462c0,4.71,3.814,8.533,8.533,8.533s8.533-3.823,8.533-8.533v-26.462 C497.314,158.305,512,141.067,512,120.468c0-23.526-19.14-42.667-42.667-42.667c-10.872,0-20.71,4.215-28.254,10.94 c-0.742-0.725-1.613-1.348-2.628-1.766L406.895,73.97c-4.361-1.775-9.344,0.299-11.145,4.642 C393.958,82.972,396.032,87.956,400.393,89.756z"></path> <path d="M337.263,63.765l23.672,9.754c1.058,0.427,2.159,0.64,3.243,0.64c3.354,0,6.537-1.997,7.902-5.282 c1.792-4.361-0.29-9.344-4.642-11.145l-23.671-9.754c-4.361-1.766-9.344,0.299-11.145,4.642 C330.829,56.981,332.902,61.964,337.263,63.765z"></path> <path d="M147.822,74.157c1.084,0,2.185-0.205,3.243-0.64l23.671-9.754c4.361-1.8,6.434-6.784,4.642-11.136 c-1.792-4.361-6.793-6.417-11.136-4.642l-23.672,9.745c-4.361,1.801-6.434,6.784-4.642,11.145 C141.286,72.168,144.469,74.157,147.822,74.157z"></path> <path d="M203.055,51.415c1.084,0,2.185-0.205,3.243-0.64l7.45-3.063c2.065,21.606,20.113,38.622,42.257,38.622 c22.135,0,40.183-17.015,42.257-38.622l7.441,3.063c1.058,0.435,2.159,0.64,3.243,0.64c3.354,0,6.537-1.988,7.893-5.282 c1.792-4.361-0.282-9.344-4.634-11.145l-16.555-6.818C289.429,12.307,274.052,1,256.004,1s-33.434,11.307-39.654,27.17 l-16.546,6.818c-4.361,1.801-6.434,6.784-4.642,11.145C196.518,49.427,199.701,51.415,203.055,51.415z"></path> </g> </g> </g> </g></svg>