<svg width="50" height="40" viewBox="0 0 50 40" fill="none" xmlns="http://www.w3.org/2000/svg">
<path d="M30.6791 0.0979579C29.3512 -0.284774 27.9687 0.4885 27.586 1.81634L17.5881 36.8089C17.2053 38.1368 17.9786 39.5193 19.3065 39.902C20.6343 40.2848 22.0168 39.5115 22.3996 38.1837L32.3975 3.19105C32.7802 1.86321 32.0069 0.480689 30.6791 0.0979579ZM36.9746 9.47879C35.9983 10.4551 35.9983 12.0407 36.9746 13.0171L43.9497 20L36.9668 26.9829C35.9904 27.9593 35.9904 29.5449 36.9668 30.5212C37.9432 31.4976 39.5288 31.4976 40.5051 30.5212L49.2533 21.7731C50.2296 20.7967 50.2296 19.2111 49.2533 18.2347L40.5051 9.4866C39.5288 8.51024 37.9432 8.51024 36.9668 9.4866L36.9746 9.47879ZM13.0187 9.47879C12.0424 8.50243 10.4568 8.50243 9.48042 9.47879L0.732267 18.2269C-0.244089 19.2033 -0.244089 20.7889 0.732267 21.7653L9.48042 30.5134C10.4568 31.4898 12.0424 31.4898 13.0187 30.5134C13.9951 29.537 13.9951 27.9514 13.0187 26.9751L6.03583 20L13.0187 13.0171C13.9951 12.0407 13.9951 10.4551 13.0187 9.47879Z" fill="#FFCE67"/>
</svg>
