<svg width="200" height="200" viewBox="0 0 200 200" fill="none" xmlns="http://www.w3.org/2000/svg">
<path d="M134.575 97.8571C134.575 113.246 119.227 125.714 100.29 125.714C95.3209 125.714 90.6066 124.857 86.3477 123.317C84.754 124.482 82.1558 126.076 79.0754 127.415C75.8611 128.808 71.9906 130 68.1468 130C67.2763 130 66.4995 129.478 66.1647 128.674C65.8299 127.871 66.0174 126.96 66.62 126.344L66.6602 126.304C66.7004 126.263 66.754 126.21 66.8343 126.116C66.9817 125.955 67.2093 125.701 67.4906 125.353C68.0397 124.683 68.7763 123.692 69.5263 122.46C70.8656 120.237 72.1379 117.317 72.3924 114.036C68.3745 109.482 66.004 103.897 66.004 97.8571C66.004 82.4687 81.3522 70 100.29 70C119.227 70 134.575 82.4687 134.575 97.8571Z" fill="#E5B66E"/>
</svg>
