<svg width="41" height="40" viewBox="0 0 41 40" fill="none" xmlns="http://www.w3.org/2000/svg">
<path d="M27.5004 7.50011C27.5004 8.61732 27.2582 9.67983 26.8129 10.6408L30.938 17.7659C29.0864 19.7425 26.7035 21.2113 24.0238 21.9535L20.0003 15.0002L14.6877 24.18C16.3674 24.7113 18.1487 25.0004 20.0081 25.0004C25.5316 25.0004 30.4614 22.4456 33.6724 18.4378C34.5396 17.3596 36.1099 17.1878 37.1881 18.0471C38.2662 18.9065 38.4381 20.4847 37.5787 21.5628C33.4458 26.7035 27.1098 30.0004 20.0003 30.0004C17.2346 30.0004 14.5783 29.5004 12.133 28.5864L7.71105 36.2271C7.34386 36.8599 6.79698 37.3756 6.14072 37.7037L1.81253 39.8678C1.4219 40.0631 0.960952 40.0397 0.593759 39.8131C0.226566 39.5865 0 39.1803 0 38.7506V34.4224C0 33.7661 0.171878 33.1177 0.50782 32.5395L5.19539 24.4379C4.19537 23.5629 3.26567 22.6019 2.43754 21.5628C1.57034 20.4847 1.75003 18.9143 2.82817 18.0471C3.90631 17.1799 5.47664 17.3596 6.34384 18.4378C6.78916 18.9925 7.26573 19.5159 7.76574 20.0081L13.1877 10.6408C12.7502 9.68764 12.5002 8.62513 12.5002 7.50011C12.5002 3.35943 15.8596 0 20.0003 0C24.141 0 27.5004 3.35943 27.5004 7.50011ZM29.1411 30.7739C31.688 29.7739 34.0239 28.3676 36.0865 26.641L39.5006 32.5395C39.8287 33.1099 40.0084 33.7583 40.0084 34.4224V38.7506C40.0084 39.1803 39.7818 39.5865 39.4146 39.8131C39.0475 40.0397 38.5865 40.0631 38.1959 39.8678L33.8677 37.7037C33.2114 37.3756 32.6645 36.8599 32.2974 36.2271L29.1411 30.7739ZM20.0003 10.0001C20.6633 10.0001 21.2992 9.73675 21.7681 9.26791C22.2369 8.79906 22.5003 8.16316 22.5003 7.50011C22.5003 6.83706 22.2369 6.20117 21.7681 5.73232C21.2992 5.26347 20.6633 5.00007 20.0003 5.00007C19.3372 5.00007 18.7014 5.26347 18.2325 5.73232C17.7637 6.20117 17.5003 6.83706 17.5003 7.50011C17.5003 8.16316 17.7637 8.79906 18.2325 9.26791C18.7014 9.73675 19.3372 10.0001 20.0003 10.0001Z" fill="#FFCE67"/>
</svg>
