<svg width="200" height="200" viewBox="0 0 200 200" fill="none" xmlns="http://www.w3.org/2000/svg">
<path d="M128.406 89.5273C128.781 90.547 128.465 91.6839 127.656 92.4106L122.581 97.0287C122.71 98.0016 122.78 98.9979 122.78 100.006C122.78 101.014 122.71 102.01 122.581 102.983L127.656 107.601C128.465 108.328 128.781 109.465 128.406 110.484C127.89 111.879 127.269 113.215 126.554 114.505L126.003 115.454C125.23 116.744 124.362 117.962 123.413 119.111C122.721 119.955 121.573 120.236 120.541 119.908L114.013 117.834C112.442 119.041 110.707 120.049 108.855 120.811L107.39 127.503C107.156 128.57 106.335 129.414 105.257 129.59C103.64 129.859 101.975 130 100.276 130C98.576 130 96.9116 129.859 95.2941 129.59C94.2158 129.414 93.3953 128.57 93.1609 127.503L91.6958 120.811C89.8438 120.049 88.1091 119.041 86.5385 117.834L80.0216 119.92C78.9902 120.248 77.8415 119.955 77.15 119.123C76.2006 117.974 75.3332 116.755 74.5596 115.466L74.0087 114.517C73.2937 113.227 72.6725 111.891 72.1568 110.496C71.7817 109.476 72.0982 108.34 72.9069 107.613L77.9822 102.995C77.8532 102.01 77.7829 101.014 77.7829 100.006C77.7829 98.9979 77.8532 98.0016 77.9822 97.0287L72.9069 92.4106C72.0982 91.6839 71.7817 90.547 72.1568 89.5273C72.6725 88.1324 73.2937 86.7963 74.0087 85.5069L74.5596 84.5575C75.3332 83.2682 76.2006 82.0492 77.15 80.9006C77.8415 80.0567 78.9902 79.7753 80.0216 80.1035L86.5502 82.1782C88.1209 80.9709 89.8556 79.9629 91.7075 79.201L93.1726 72.5083C93.407 71.4417 94.2275 70.5978 95.3059 70.422C96.9234 70.1407 98.5877 70 100.287 70C101.987 70 103.651 70.1407 105.269 70.4102C106.347 70.5861 107.168 71.43 107.402 72.4966L108.867 79.1893C110.719 79.9512 112.454 80.9592 114.024 82.1664L120.553 80.0918C121.584 79.7636 122.733 80.0567 123.425 80.8888C124.374 82.0375 125.241 83.2565 126.015 84.5458L126.566 85.4952C127.281 86.7845 127.902 88.1207 128.418 89.5155L128.406 89.5273ZM100.287 109.383C102.774 109.383 105.159 108.395 106.918 106.636C108.676 104.878 109.664 102.493 109.664 100.006C109.664 97.519 108.676 95.1339 106.918 93.3754C105.159 91.6169 102.774 90.629 100.287 90.629C97.8004 90.629 95.4154 91.6169 93.6569 93.3754C91.8984 95.1339 90.9105 97.519 90.9105 100.006C90.9105 102.493 91.8984 104.878 93.6569 106.636C95.4154 108.395 97.8004 109.383 100.287 109.383Z" fill="#E5B66E"/>
</svg>
