<svg width="58" height="40" viewBox="0 0 58 40" fill="none" xmlns="http://www.w3.org/2000/svg">
<path d="M5.71429 5.71429C5.71429 2.5625 8.27679 0 11.4286 0H45.7143C48.8661 0 51.4286 2.5625 51.4286 5.71429V28.5714H45.7143V5.71429H11.4286V28.5714H5.71429V5.71429ZM0 33.1429C0 32.1964 0.767857 31.4286 1.71429 31.4286H55.4286C56.375 31.4286 57.1429 32.1964 57.1429 33.1429C57.1429 36.9286 54.0714 40 50.2857 40H6.85714C3.07143 40 0 36.9286 0 33.1429ZM25.0893 15.8036L22.3214 18.5714L25.0893 21.3393C25.9286 22.1786 25.9286 23.5357 25.0893 24.3661C24.25 25.1964 22.8929 25.2054 22.0625 24.3661L17.7768 20.0804C16.9375 19.2411 16.9375 17.8839 17.7768 17.0536L22.0625 12.7679C22.9018 11.9286 24.2589 11.9286 25.0893 12.7679C25.9196 13.6071 25.9286 14.9643 25.0893 15.7946V15.8036ZM35.0893 12.7679L39.375 17.0536C40.2143 17.8929 40.2143 19.25 39.375 20.0804L35.0893 24.3661C34.25 25.2054 32.8929 25.2054 32.0625 24.3661C31.2321 23.5268 31.2232 22.1696 32.0625 21.3393L34.8304 18.5714L32.0625 15.8036C31.2232 14.9643 31.2232 13.6071 32.0625 12.7768C32.9018 11.9464 34.2589 11.9375 35.0893 12.7768V12.7679Z" fill="#FFCE67"/>
</svg>
