<svg fill="#FFCE67" height="200px" width="200px" version="1.1" xmlns="http://www.w3.org/2000/svg" viewBox="0 0 297 297" xmlns:xlink="http://www.w3.org/1999/xlink" enable-background="new 0 0 297 297"><g id="SVGRepo_bgCarrier" stroke-width="0"></g><g id="SVGRepo_tracerCarrier" stroke-linecap="round" stroke-linejoin="round"></g><g id="SVGRepo_iconCarrier"> <g> <path d="M225.656,77.674c21.414,0,38.837-17.422,38.837-38.837S247.07,0,225.656,0S186.82,17.422,186.82,38.837 S204.241,77.674,225.656,77.674z M225.656,16.819c12.14,0,22.018,9.878,22.018,22.018s-9.878,22.018-22.018,22.018 s-22.017-9.878-22.017-22.018S213.515,16.819,225.656,16.819z"></path> <path d="m270.577,194.311c-13.621,31.839-44.341,54.195-80.55,56.439l14.699-14.7c3.284-3.285 3.284-8.609 0-11.893-3.285-3.283-8.608-3.283-11.893,0l-29.243,29.244c-3.284,3.285-3.284,8.609 0,11.893l29.243,29.243c1.642,1.641 3.794,2.463 5.947,2.463 2.153,0 4.304-0.821 5.947-2.463 3.284-3.284 3.284-8.609 0-11.893l-15.027-15.026c53.241-2.636 101.018-42.65 104.726-94.915 0.819-11.542 0.215-46.283 0.215-46.283 0-16.58-10.288-31.241-26.017-36.483-0.064-0.021-10.928-3.355-10.928-3.355-4.279-1.316-8.835,0.956-10.368,5.159l-14.031,38.496c0,0-3.547-21.974-3.841-22.459 0.017-0.029 0.039-0.054 0.056-0.083l7.453-12.909c0.795-1.378 0.795-3.074 0-4.452-0.795-1.378-2.266-2.226-3.856-2.226h-14.906c-1.59,0-3.061,0.848-3.856,2.226s-0.795,3.074 0,4.452l7.453,12.909c0.017,0.029 0.038,0.055 0.056,0.083-0.294,0.485-3.841,22.459-3.841,22.459l-14.03-38.496c-1.532-4.204-6.091-6.477-10.368-5.159 0,0-10.864,3.334-10.928,3.355-15.729,5.242-26.296,19.903-26.296,36.483v59.482c0,4.644 3.765,8.409 8.409,8.409h105.775zm-97.366-16.818v-51.073c0-9.298 5.906-17.524 14.707-20.499l2.998-.92 26.421,72.491h-44.126zm104.511-9.146c0,5.272-6.892,9.146-12.459,9.146h-31.289l26.422-72.491 2.998,.92c8.802,2.975 14.328,11.2 14.328,20.499 0-1.42109e-14 0,30.74 0,41.926z"></path> <path d="m71.7,219.894c14.654,0 26.576-11.922 26.576-26.576 0-14.653-11.922-26.576-26.576-26.576-14.653,0-26.576,11.922-26.576,26.576 0.001,14.653 11.923,26.576 26.576,26.576zm0-36.333c5.38,0 9.758,4.377 9.758,9.757s-4.378,9.757-9.758,9.757c-5.38,0-9.757-4.377-9.757-9.757s4.377-9.757 9.757-9.757z"></path> <path d="m115.635,19.452c-3.285-3.283-8.608-3.283-11.893,0-3.284,3.285-3.284,8.609 0,11.893l15.023,15.022c-58.18,2.807-104.684,49.598-105.203,112.411l-10.29,17.823c-1.115,1.931-1.417,4.227-0.84,6.381 0.577,2.154 1.986,3.991 3.918,5.106l9.058,5.23-9.058,5.23c-1.931,1.115-3.341,2.952-3.918,5.106-0.578,2.154-0.275,4.45 0.84,6.381l19.737,34.185c2.322,4.023 7.464,5.398 11.487,3.078l9.058-5.23v10.459c0,4.644 3.765,8.409 8.409,8.409h39.473c4.644,0 8.409-3.765 8.409-8.409v-10.459l9.058,5.23c1.931,1.115 4.227,1.417 6.381,0.84 2.154-0.577 3.991-1.986 5.106-3.918l19.736-34.185c2.322-4.022 0.944-9.165-3.078-11.487l-9.059-5.23 9.059-5.23c4.022-2.323 5.4-7.465 3.078-11.487l-19.736-34.185c-1.115-1.931-2.952-3.341-5.106-3.918-2.154-0.58-4.45-0.275-6.381,0.84l-9.058,5.23v-10.46c0-4.644-3.765-8.409-8.409-8.409h-39.472c-4.644,0-8.409,3.765-8.409,8.409v10.46l-9.058-5.23c-0.732-0.422-1.501-0.719-2.284-0.902 8.265-41.08 43.409-72.543 86.229-75.196l-14.7,14.699c-3.284,3.284-3.284,8.609 0,11.893 1.642,1.641 3.794,2.463 5.947,2.463s4.304-0.821 5.947-2.463l29.244-29.244c1.577-1.578 2.463-3.717 2.463-5.947 0-2.231-0.886-4.369-2.463-5.947l-29.245-29.242zm-67.876,146.964c2.603,1.501 5.806,1.501 8.409,0 2.602-1.502 4.205-4.278 4.205-7.283v-16.617h22.655v16.617c0,3.005 1.603,5.78 4.205,7.283 2.603,1.501 5.808,1.501 8.409,0l14.39-8.308 11.327,19.619-14.39,8.308c-2.602,1.502-4.205,4.278-4.205,7.283s1.603,5.78 4.205,7.283l14.39,8.308-11.327,19.619-14.39-8.308c-2.603-1.501-5.808-1.501-8.409,0-2.602,1.502-4.205,4.278-4.205,7.283v16.616h-22.655v-16.616c0-3.005-1.603-5.78-4.205-7.283-2.603-1.501-5.806-1.501-8.409,0l-14.39,8.308-11.328-19.619 14.39-8.308c2.602-1.502 4.205-4.278 4.205-7.283s-1.603-5.78-4.205-7.283l-14.39-8.308 11.328-19.619 14.39,8.308z"></path> </g> </g></svg>