<svg width="28" height="40" viewBox="0 0 28 40" fill="none" xmlns="http://www.w3.org/2000/svg">
<path d="M0 5C0 2.24219 2.24219 0 5 0H22.5C25.2578 0 27.5 2.24219 27.5 5V35C27.5 37.7578 25.2578 40 22.5 40H5C2.24219 40 0 37.7578 0 35V5ZM16.25 35C16.25 34.337 15.9866 33.7011 15.5178 33.2322C15.0489 32.7634 14.413 32.5 13.75 32.5C13.087 32.5 12.4511 32.7634 11.9822 33.2322C11.5134 33.7011 11.25 34.337 11.25 35C11.25 35.663 11.5134 36.2989 11.9822 36.7678C12.4511 37.2366 13.087 37.5 13.75 37.5C14.413 37.5 15.0489 37.2366 15.5178 36.7678C15.9866 36.2989 16.25 35.663 16.25 35ZM22.5 5H5V30H22.5V5Z" fill="#FFCE67"/>
</svg>
