<svg width="200" height="200" viewBox="0 0 200 200" fill="none" xmlns="http://www.w3.org/2000/svg">
<path d="M71.4375 77.5C71.4375 75.5109 72.1289 73.6032 73.3596 72.1967C74.5903 70.7902 76.2595 70 78 70C79.7405 70 81.4097 70.7902 82.6404 72.1967C83.8711 73.6032 84.5625 75.5109 84.5625 77.5C84.5625 79.4891 83.8711 81.3968 82.6404 82.8033C81.4097 84.2098 79.7405 85 78 85C76.2595 85 74.5903 84.2098 73.3596 82.8033C72.1289 81.3968 71.4375 79.4891 71.4375 77.5ZM70.5 98.6205C69.3281 100.121 68.625 102.116 68.625 104.286C68.625 106.455 69.3281 108.451 70.5 109.951V98.6205ZM87.4219 92.0179C83.9414 95.5402 81.75 100.696 81.75 106.429C81.75 111.022 83.1562 115.241 85.5 118.549V121.429C85.5 123.799 83.8242 125.714 81.75 125.714H74.25C72.1758 125.714 70.5 123.799 70.5 121.429V117.839C66.0703 115.429 63 110.272 63 104.286C63 95.9955 68.8711 89.2857 76.125 89.2857H79.875C82.6875 89.2857 85.2891 90.2902 87.4219 92.0045V92.0179ZM115.5 121.429V118.549C117.844 115.241 119.25 111.022 119.25 106.429C119.25 100.696 117.059 95.5402 113.578 92.0045C115.711 90.2902 118.312 89.2857 121.125 89.2857H124.875C132.129 89.2857 138 95.9955 138 104.286C138 110.272 134.93 115.429 130.5 117.839V121.429C130.5 123.799 128.824 125.714 126.75 125.714H119.25C117.176 125.714 115.5 123.799 115.5 121.429ZM116.438 77.5C116.438 75.5109 117.129 73.6032 118.36 72.1967C119.59 70.7902 121.26 70 123 70C124.74 70 126.41 70.7902 127.64 72.1967C128.871 73.6032 129.562 75.5109 129.562 77.5C129.562 79.4891 128.871 81.3968 127.64 82.8033C126.41 84.2098 124.74 85 123 85C121.26 85 119.59 84.2098 118.36 82.8033C117.129 81.3968 116.438 79.4891 116.438 77.5ZM130.5 98.6205V109.964C131.672 108.451 132.375 106.469 132.375 104.299C132.375 102.129 131.672 100.134 130.5 98.6339V98.6205ZM100.5 70C102.489 70 104.397 70.9031 105.803 72.5105C107.21 74.118 108 76.2981 108 78.5714C108 80.8447 107.21 83.0249 105.803 84.6323C104.397 86.2398 102.489 87.1429 100.5 87.1429C98.5109 87.1429 96.6032 86.2398 95.1967 84.6323C93.7902 83.0249 93 80.8447 93 78.5714C93 76.2981 93.7902 74.118 95.1967 72.5105C96.6032 70.9031 98.5109 70 100.5 70ZM91.125 106.429C91.125 108.598 91.8281 110.58 93 112.094V100.763C91.8281 102.277 91.125 104.259 91.125 106.429ZM108 100.763V112.107C109.172 110.594 109.875 108.612 109.875 106.442C109.875 104.272 109.172 102.277 108 100.777V100.763ZM115.5 106.429C115.5 112.415 112.43 117.571 108 119.982V125.714C108 128.085 106.324 130 104.25 130H96.75C94.6758 130 93 128.085 93 125.714V119.982C88.5703 117.571 85.5 112.415 85.5 106.429C85.5 98.1384 91.3711 91.4286 98.625 91.4286H102.375C109.629 91.4286 115.5 98.1384 115.5 106.429Z" fill="#E5B66E"/>
</svg>
