<svg width="200" height="200" viewBox="0 0 200 200" fill="none" xmlns="http://www.w3.org/2000/svg">
<path d="M100.25 100C104.228 100 108.044 98.4196 110.857 95.6066C113.67 92.7936 115.25 88.9782 115.25 85C115.25 81.0218 113.67 77.2064 110.857 74.3934C108.044 71.5804 104.228 70 100.25 70C96.2718 70 92.4564 71.5804 89.6434 74.3934C86.8304 77.2064 85.25 81.0218 85.25 85C85.25 88.9782 86.8304 92.7936 89.6434 95.6066C92.4564 98.4196 96.2718 100 100.25 100ZM94.8945 105.625C83.3516 105.625 74 114.977 74 126.52C74 128.441 75.5586 130 77.4805 130H123.02C124.941 130 126.5 128.441 126.5 126.52C126.5 114.977 117.148 105.625 105.605 105.625H94.8945Z" fill="#E5B66E"/>
</svg>
